<?xml version="1.0" encoding="UTF-8"?>
<svg width="15px" height="15px" viewBox="0 0 15 15" version="1.1" xmlns="http://www.w3.org/2000/svg" xmlns:xlink="http://www.w3.org/1999/xlink">
    <!-- Generator: Sketch 47.1 (45422) - http://www.bohemiancoding.com/sketch -->
    <title>Facebook-color</title>
    <desc>Created with Sketch.</desc>
    <defs></defs>
    <g id="Page-1" stroke="none" stroke-width="1" fill="none" fill-rule="evenodd">
        <g id="compartir" transform="translate(-284.000000, -459.000000)" fill="#B4C000">
            <g id="Group-3" transform="translate(268.000000, 417.000000)">
                <path d="M24.011986,57 L16.8278849,57 C16.3705227,57 16,56.6292474 16,56.1720634 L16,42.8278784 C16,42.370578 16.3705809,42 16.8278849,42 L30.1721734,42 C30.6293609,42 31,42.370578 31,42.8278784 L31,56.1720634 C31,56.6293056 30.6293027,57 30.1721734,57 L26.3497829,57 L26.3497829,51.1911733 L28.2995379,51.1911733 L28.591486,48.9273705 L26.3497829,48.9273705 L26.3497829,47.4820754 C26.3497829,46.8266523 26.5317849,46.380003 27.471653,46.380003 L28.6704098,46.3794792 L28.6704098,44.3547158 C28.4630894,44.3271276 27.7514949,44.2654907 26.92361,44.2654907 C25.1952607,44.2654907 24.011986,45.320477 24.011986,47.2578778 L24.011986,48.9273705 L22.0572256,48.9273705 L22.0572256,51.1911733 L24.011986,51.1911733 L24.011986,57 L24.011986,57 Z" id="Facebook"></path>
            </g>
        </g>
    </g>
</svg>