<?xml version="1.0" encoding="UTF-8"?>
<svg width="16px" height="12px" viewBox="0 0 16 12" version="1.1" xmlns="http://www.w3.org/2000/svg" xmlns:xlink="http://www.w3.org/1999/xlink">
    <!-- Generator: Sketch 47.1 (45422) - http://www.bohemiancoding.com/sketch -->
    <title>Group 18</title>
    <desc>Created with Sketch.</desc>
    <defs></defs>
    <g id="Page-1" stroke="none" stroke-width="1" fill="none" fill-rule="evenodd">
        <g id="compartir" transform="translate(-283.000000, -543.000000)" fill="#B4C000">
            <g id="Group-3" transform="translate(268.000000, 417.000000)">
                <g id="Group-18" transform="translate(15.000000, 126.000000)">
                    <path d="M14.4391678,0 L14.4390651,0 C15.3015596,0 16.0204166,0.738157839 15.9995572,1.62377852 L15.9995572,10.3762215 C15.9995572,11.2618422 15.3015596,12 14.418218,12 L1.58133916,12 C0.718865215,12 0,11.2832698 0,10.3762215 L0,1.62377852 C0,0.738157839 0.697997584,0 1.58133916,0 L14.4391678,0 Z M14.2361392,2.9382709 L14.2360697,2.93845478 C14.3999405,2.77483712 14.3999446,2.52981518 14.2360697,2.36620161 C14.0721947,2.20258803 13.8267874,2.20258803 13.6629165,2.36620161 L8.34311847,7.67846329 C8.03615983,7.98493993 7.52456208,7.98493993 7.21760344,7.67846329 L1.93771007,2.20254308 C1.79462641,2.03892951 1.52842778,2.018179 1.36455688,2.18179257 C1.20068598,2.32465155 1.17990284,2.59043217 1.34377374,2.75404575 L4.53655294,6.06378909 L1.77392512,8.82207882 C1.61005422,8.98569648 1.61005422,9.23071842 1.77392512,9.39433199 C1.85545334,9.4765372 1.95778107,9.51724138 2.06009243,9.51724138 C2.1624038,9.51724138 2.26472335,9.4765372 2.34625975,9.4150825 L5.10888757,6.63595237 L6.64368081,8.22979433 C6.95063945,8.53627505 7.38070898,8.69988862 7.78998718,8.69988862 C8.19926537,8.69988862 8.6293349,8.55702965 8.93549546,8.23059117 L10.49108,6.67744931 L13.0498873,9.21058086 C13.1314155,9.29278606 13.2337433,9.33349025 13.3360546,9.33349025 C13.438366,9.33349025 13.5406855,9.29198922 13.6222219,9.21058086 C13.7860928,9.0469632 13.7860928,8.80194126 13.6222219,8.63832768 L11.0851064,6.10519613 L14.2361392,2.9382709 Z" id="Combined-Shape"></path>
                </g>
            </g>
        </g>
    </g>
</svg>