<?xml version="1.0" encoding="UTF-8"?>
<svg width="16px" height="19px" viewBox="0 0 16 19" version="1.1" xmlns="http://www.w3.org/2000/svg" xmlns:xlink="http://www.w3.org/1999/xlink">
    <!-- Generator: Sketch 47.1 (45422) - http://www.bohemiancoding.com/sketch -->
    <title>Group 2</title>
    <desc>Created with Sketch.</desc>
    <defs></defs>
    <g id="Symbols" stroke="none" stroke-width="1" fill="none" fill-rule="evenodd">
        <g id="elements/event" transform="translate(-103.000000, -76.000000)" fill="#B4C000">
            <g id="Group-4" transform="translate(103.000000, 76.000000)">
                <g id="Group-2">
                    <path d="M12.4733005,12.2678867 C11.7756838,12.2678867 11.1580605,12.5024357 10.6398309,12.8937855 L6.39406935,10.5853434 C6.49372888,10.2918311 6.55379035,9.97901215 6.55379035,9.66619321 C6.55379035,9.33380679 6.49372888,9.01994425 6.39406935,8.7264319 L10.8590819,6.28049565 C11.3177815,6.574008 11.8753433,6.75037631 12.4733005,6.75037631 C14.1279144,6.75037631 15.4630863,5.43961539 15.4630863,3.81525282 C15.4630863,2.19062935 14.1279144,0.880129327 12.4733005,0.880129327 C10.8184208,0.880129327 9.48351468,2.19062935 9.48351468,3.81525282 C9.48351468,4.26556599 9.5831742,4.69578987 9.78249326,5.06783308 L5.49713361,7.41593187 C4.97916983,6.98570799 4.30121929,6.71150223 3.56400455,6.71150223 C1.90939065,6.71150223 0.57421875,8.02226316 0.57421875,9.64662572 C0.57421875,11.2712492 1.90939065,12.5817492 3.56400455,12.5817492 C4.30121929,12.5817492 4.97916983,12.3078044 5.49713361,11.8775805 L9.68283373,14.1471484 C9.56350806,14.4795348 9.48351468,14.8320106 9.48351468,15.1847472 C9.48351468,16.8091097 10.8184208,18.1198707 12.4733005,18.1198707 C14.1279144,18.1198707 15.4630863,16.8091097 15.4630863,15.1847472 C15.4630863,13.5590801 14.1071852,12.2678867 12.4733005,12.2678867 Z" id="Page-1-Copy-13"></path>
                </g>
            </g>
        </g>
    </g>
</svg>