<?xml version="1.0" encoding="UTF-8"?>
<svg width="12px" height="14px" viewBox="0 0 12 14" version="1.1" xmlns="http://www.w3.org/2000/svg" xmlns:xlink="http://www.w3.org/1999/xlink">
    <!-- Generator: Sketch 47.1 (45422) - http://www.bohemiancoding.com/sketch -->
    <title>Page 1</title>
    <desc>Created with Sketch.</desc>
    <defs></defs>
    <g id="Symbols" stroke="none" stroke-width="1" fill="none" fill-rule="evenodd">
        <g id="elements/event" transform="translate(-103.000000, -50.000000)" fill="#939393">
            <path d="M108.471639,63.3660587 C108.64126,63.5351155 108.916035,63.5351155 109.085656,63.3660587 L112.503991,59.9471452 C113.492293,58.9588432 114.046923,57.6188509 114.046923,56.2218164 C114.046923,54.8241741 113.492278,53.4841963 112.503991,52.4964877 C111.515689,51.5081857 110.175696,50.9535549 108.778662,50.9535549 C107.381627,50.9535549 106.041621,51.5082002 105.053333,52.4964877 C104.065031,53.4842252 103.5104,54.824203 103.5104,56.2218164 C103.5104,57.6188943 104.065046,58.9588576 105.053333,59.9471452 L108.471639,63.3660587 Z M108.778647,53.6927672 C109.606389,53.6758051 110.362831,54.1614801 110.691392,54.9219318 C111.01988,55.6818189 110.855918,56.5654591 110.275828,57.1568684 C109.696302,57.7482633 108.816555,57.9303323 108.049865,57.6170995 C107.28319,57.3033023 106.782257,56.5575563 106.782822,55.7292503 C106.773211,54.6165584 107.66597,53.7057794 108.778647,53.6927528 L108.778647,53.6927672 Z" id="Page-1"></path>
        </g>
    </g>
</svg>