<?xml version="1.0" encoding="UTF-8"?>
<svg width="21px" height="20px" viewBox="0 0 21 20" version="1.1" xmlns="http://www.w3.org/2000/svg" xmlns:xlink="http://www.w3.org/1999/xlink">
    <!-- Generator: Sketch 47.1 (45422) - http://www.bohemiancoding.com/sketch -->
    <title>Fill 1</title>
    <desc>Created with Sketch.</desc>
    <defs></defs>
    <g id="Symbols" stroke="none" stroke-width="1" fill="none" fill-rule="evenodd">
        <g id="elements/event" transform="translate(-211.000000, -76.000000)" fill="#B4C000">
            <g id="Group" transform="translate(211.000000, 76.000000)">
                <path d="M11.4945763,7.33866005 L12.7252512,6.10798512 L14.4174347,7.80016859 L13.1867598,9.03084352 L11.4945763,7.33866005 Z M2.76715235,14.3608989 C3.07141595,14.6651626 3.55078779,14.7093748 3.8983933,14.4475914 C4.55113274,13.9469838 5.48689999,14.0124318 6.07419142,14.5997276 C6.66148284,15.187019 6.72693085,16.1227863 6.22632757,16.7755257 C5.96540586,17.1240015 6.00874776,17.6025031 6.31302007,17.9067667 L8.09700046,19.6907471 C8.27123402,19.8649806 8.48881819,19.9516688 8.706398,19.9516688 C8.92397781,19.9516688 9.14155762,19.8649763 9.31579553,19.6907471 L19.8906095,9.11593307 C20.2390854,8.76745724 20.2390854,8.22350771 19.8906095,7.87590221 L12.7759673,0.762130272 C12.4274914,0.413654446 11.8835419,0.413654446 11.5359364,0.762130272 L0.983315558,11.3369443 C0.634839732,11.6854201 0.634839732,12.2293696 0.983315558,12.5769751 L2.76715235,14.3608989 Z M9.44663498,5.33133677 L10.469086,6.35378782 L11.7091169,5.11375696 L10.6866658,4.09130591 L12.1663826,2.61158913 L18.0632307,8.50843718 L16.5835139,9.98815396 L15.5610628,8.96570291 L14.321032,10.2057338 L15.343483,11.2281848 L8.72949192,17.8421759 L8.03341059,17.1460946 C8.57736011,15.8839576 8.33767419,14.3608554 7.33732925,13.360641 C6.31402964,12.3594258 4.79099272,12.0985041 3.52881223,12.6424536 L2.8327309,11.9455237 L9.44663498,5.33133677 Z" id="Fill-1"></path>
            </g>
        </g>
    </g>
</svg>