<?xml version="1.0" encoding="UTF-8"?>
<svg width="16px" height="14px" viewBox="0 0 16 14" version="1.1" xmlns="http://www.w3.org/2000/svg" xmlns:xlink="http://www.w3.org/1999/xlink">
    <!-- Generator: Sketch 47.1 (45422) - http://www.bohemiancoding.com/sketch -->
    <title>Twitter-color</title>
    <desc>Created with Sketch.</desc>
    <defs></defs>
    <g id="Page-1" stroke="none" stroke-width="1" fill="none" fill-rule="evenodd">
        <g id="compartir" transform="translate(-283.000000, -487.000000)" fill="#B4C000">
            <g id="Group-3" transform="translate(268.000000, 417.000000)">
                <path d="M31,72.2056338 C30.4121031,72.4666667 29.7791278,72.6431925 29.1151611,72.7220657 C29.7932148,72.3164319 30.3134942,71.6732394 30.5586077,70.9070423 C29.9237542,71.2826291 29.2222222,71.5558685 28.4727945,71.7023474 C27.8755063,71.0647887 27.0218348,70.6666667 26.0770676,70.6666667 C24.265481,70.6666667 22.7957387,72.1361502 22.7957387,73.9483568 C22.7957387,74.2056338 22.8239127,74.4553991 22.8802606,74.6957746 C20.1520808,74.5586854 17.7338146,73.2535211 16.1138111,71.2657277 C15.8311322,71.7521127 15.6696015,72.3164319 15.6696015,72.9173709 C15.6696015,74.0553991 16.2490462,75.0600939 17.1299525,75.6488263 C16.5927687,75.6328638 16.0856371,75.4835681 15.6423666,75.2394366 L15.6423666,75.2798122 C15.6423666,76.8704225 16.7740212,78.1971831 18.2766332,78.4976526 C18.0014674,78.5746479 17.7112755,78.6131455 17.4116922,78.6131455 C17.2003874,78.6131455 16.9937782,78.5934272 16.793743,78.5549296 C17.211657,79.858216 18.4231379,80.8075117 19.8600106,80.8328638 C18.7368081,81.713615 17.3205963,82.2384977 15.7832365,82.2384977 C15.5184011,82.2384977 15.2563832,82.2234742 15,82.1934272 C16.4528379,83.1230047 18.1789634,83.6666667 20.0318718,83.6666667 C26.0704936,83.6666667 29.3715443,78.6666667 29.3715443,74.3295775 C29.3715443,74.1868545 29.3687269,74.0441315 29.3630921,73.9042254 C30.0045196,73.4413146 30.5614251,72.8638498 31,72.2056338" id="Twitter"></path>
            </g>
        </g>
    </g>
</svg>