<?xml version="1.0" encoding="UTF-8"?>
<svg width="15px" height="16px" viewBox="0 0 15 16" version="1.1" xmlns="http://www.w3.org/2000/svg" xmlns:xlink="http://www.w3.org/1999/xlink">
    <!-- Generator: Sketch 47.1 (45422) - http://www.bohemiancoding.com/sketch -->
    <title>Whatsapp-color</title>
    <desc>Created with Sketch.</desc>
    <defs></defs>
    <g id="Page-1" stroke="none" stroke-width="1" fill="none" fill-rule="evenodd">
        <g id="compartir" transform="translate(-284.000000, -514.000000)" fill="#B4C000">
            <g id="Group-3" transform="translate(268.000000, 417.000000)">
                <path d="M23.497823,97.3333333 L23.497823,97.3334578 L23.502177,97.3334578 C27.6367964,97.3334578 31,100.69761 31,104.833396 C31,108.969057 27.6367964,112.333333 23.502177,112.333333 C21.9770105,112.333333 20.5620641,111.879263 19.3763902,111.094439 L16.4936265,112.01577 L17.4281331,109.229254 C16.5289566,107.994591 16,106.473474 16,104.833271 C16,100.697486 19.3632036,97.3333333 23.497823,97.3333333 Z M21.291356,100.700168 C21.1439942,100.363191 21.0323068,100.350429 20.8090581,100.341761 C20.7330452,100.337547 20.6483342,100.333333 20.554421,100.333333 C20.2639834,100.333333 19.9603097,100.414357 19.7771475,100.5935 C19.5538988,100.811049 19,101.318621 19,102.359531 C19,103.40044 19.7950477,104.407158 19.902197,104.548017 C20.0138844,104.688634 21.452206,106.855691 23.6854492,107.738886 C25.4318565,108.429936 25.9500809,108.365888 26.3475417,108.284864 C26.9281647,108.165435 27.6562757,107.755741 27.8394379,107.26105 C28.0226002,106.766119 28.0226002,106.343784 27.9688995,106.254212 C27.9153248,106.16464 27.767837,106.113594 27.5445883,106.006807 C27.3213396,105.900139 26.2358543,105.388232 26.0303798,105.31997 C25.8293173,105.247494 25.637331,105.273138 25.4855572,105.477924 C25.2711326,105.763735 25.061246,106.05388 24.8914459,106.228689 C24.7574463,106.365214 24.5384836,106.382309 24.3554474,106.309713 C24.1097604,106.211714 23.421988,105.981163 22.5732396,105.260256 C21.9166036,104.701516 21.4699801,104.006253 21.3405186,103.797252 C21.210931,103.584038 21.3271564,103.460154 21.4297676,103.34506 C21.541455,103.212749 21.6486043,103.118964 21.7602917,102.995201 C21.871979,102.871558 21.9345038,102.807509 22.0059787,102.662437 C22.0819916,102.521699 22.0282909,102.376626 21.9747163,102.269959 C21.9211416,102.163292 21.4745182,101.122383 21.291356,100.700168 Z" id="Whatsapp"></path>
            </g>
        </g>
    </g>
</svg>